<?xml version="1.0" ?><svg viewBox="0 0 32 32" xmlns="http://www.w3.org/2000/svg"><defs><style>.cls-1{fill:#00c853;}.cls-2{fill:#d50000;}.cls-3{fill:#5b4036;}.cls-4{fill:#795548;}</style></defs><title/><g data-name="Layer 3" id="Layer_3"><path class="cls-1" d="M23,6.56A8.16,8.16,0,0,0,16.4,5.45a.46.46,0,0,0-.22.11.28.28,0,0,1-.36,0,.36.36,0,0,0-.27-.12,8.32,8.32,0,0,0-6.31.82C7.36,7.46,6.1,9.58,5.52,12.55a.51.51,0,0,0,.24.53A.48.48,0,0,0,6.34,13a13.36,13.36,0,0,1,4.31-2.44A5,5,0,0,0,11.46,15a.52.52,0,0,0,.41.21h.06a.49.49,0,0,0,.4-.31c.7-1.7,2-4.19,2.83-4.7A5.87,5.87,0,0,1,19.31,14a.51.51,0,0,0,1-.06,6.86,6.86,0,0,0-.81-4.61A12,12,0,0,1,25.63,13a.47.47,0,0,0,.58.12.5.5,0,0,0,.29-.52A9.77,9.77,0,0,0,23,6.56Z"/><path class="cls-2" d="M25.84,13.11a.35.35,0,0,1-.21-.12,12,12,0,0,0-6.17-3.71,6.86,6.86,0,0,1,.81,4.61.51.51,0,0,1-1,.06,5.87,5.87,0,0,0-4.15-3.72c-.83.51-2.13,3-2.83,4.7a.49.49,0,0,1-.4.31h-.06a.52.52,0,0,1-.41-.21,5,5,0,0,1-.81-4.45A13.36,13.36,0,0,0,6.34,13a.39.39,0,0,1-.16.07,11,11,0,1,0,19.66,0Z"/><path class="cls-3" d="M15.5,3a.5.5,0,0,0-.5.5V5.94a.49.49,0,0,0,.18.38,1.31,1.31,0,0,0,.82.3V3Z"/><path class="cls-4" d="M16.5,3H16V6.62h0a1.2,1.2,0,0,0,.8-.31A.49.49,0,0,0,17,5.94V3.5A.5.5,0,0,0,16.5,3Z"/></g></svg>